<?xml version="1.0" encoding="UTF-8" standalone="no"?>
<svg
   xmlns:dc="http://purl.org/dc/elements/1.1/"
   xmlns:cc="http://creativecommons.org/ns#"
   xmlns:rdf="http://www.w3.org/1999/02/22-rdf-syntax-ns#"
   xmlns:svg="http://www.w3.org/2000/svg"
   xmlns="http://www.w3.org/2000/svg"
   xmlns:sodipodi="http://sodipodi.sourceforge.net/DTD/sodipodi-0.dtd"
   xmlns:inkscape="http://www.inkscape.org/namespaces/inkscape"
   width="101.3"
   height="70"
   version="1.1"
   viewBox="0 0 26.803 18.521"
   id="svg46"
   sodipodi:docname="card-no-text.svg"
   inkscape:version="1.0.2 (e86c870879, 2021-01-15)">
  <defs
     id="defs50">
    <rect
       x="18.104629"
       y="5.2537142"
       width="11.841051"
       height="16.155233"
       id="rect883" />
  </defs>
  <sodipodi:namedview
     pagecolor="#ffffff"
     bordercolor="#666666"
     borderopacity="1"
     objecttolerance="10"
     gridtolerance="10"
     guidetolerance="10"
     inkscape:pageopacity="0"
     inkscape:pageshadow="2"
     inkscape:window-width="1920"
     inkscape:window-height="1009"
     id="namedview48"
     showgrid="false"
     inkscape:zoom="11.530108"
     inkscape:cx="47.354282"
     inkscape:cy="35"
     inkscape:window-x="-8"
     inkscape:window-y="1072"
     inkscape:window-maximized="1"
     inkscape:current-layer="text28" />
  <metadata
     id="metadata2">
    <rdf:RDF>
      <cc:Work
         rdf:about="">
        <dc:format>image/svg+xml</dc:format>
        <dc:type
           rdf:resource="http://purl.org/dc/dcmitype/StillImage" />
        <dc:title></dc:title>
      </cc:Work>
    </rdf:RDF>
  </metadata>
  <g
     transform="translate(-3.9688 -3.9688)"
     id="g44">
    <path
       x="3.96875"
       y="3.96875"
       width="13.229167"
       height="18.520834"
       d="m5.9688 3.9688h9.2292a2 2 45 0 1 2 2v14.521a2 2 135 0 1-2 2h-9.2292a2 2 45 0 1-2-2v-14.521a2 2 135 0 1 2-2z"
       fill="#2b313a"
       id="path4" />
    <circle
       cx="6.6146"
       cy="6.6146"
       r="1.3229"
       fill="#fffffe"
       id="circle6" />
    <path
       x="5.2916665"
       y="18.520834"
       width="10.583333"
       height="2.6458333"
       d="m6.2917 18.521h8.5833a1 1 45 0 1 1 1v0.64583a1 1 135 0 1-1 1h-8.5833a1 1 45 0 1-1-1v-0.64583a1 1 135 0 1 1-1z"
       fill="#fffffe"
       fill-opacity=".40994"
       id="path8" />
    <g
       font-family="'Poppins'"
       font-size="1.4111px"
       font-weight="bold"
       stroke-width=".26458"
       id="g40">
      <g
         aria-label="&lt;CardMenu /&gt;"
         id="text18"
         style="line-height:1.25">
        <path
           d="m 18.780476,20.179595 -0.270931,-0.30762 0.270931,-0.309031 h 0.347131 l -0.270932,0.309031 0.270932,0.30762 z"
           style="fill:#26afe6"
           id="path887" />
        <path
           d="m 19.240492,19.859275 q 0,-0.146754 0.06068,-0.261053 0.06209,-0.11571 0.174976,-0.17921 0.112888,-0.06491 0.259642,-0.06491 0.186266,0 0.313265,0.100189 0.126999,0.09878 0.163687,0.26952 h -0.297742 q -0.02681,-0.05644 -0.07479,-0.08608 -0.04657,-0.02963 -0.108655,-0.02963 -0.09596,0 -0.15381,0.06914 -0.05644,0.06773 -0.05644,0.182032 0,0.11571 0.05644,0.184854 0.05785,0.06773 0.15381,0.06773 0.06209,0 0.108655,-0.02963 0.04798,-0.02963 0.07479,-0.08608 h 0.297742 q -0.03669,0.170743 -0.163687,0.270931 -0.126999,0.09878 -0.313265,0.09878 -0.146754,0 -0.259642,-0.0635 -0.112888,-0.06491 -0.174976,-0.17921 -0.06068,-0.11571 -0.06068,-0.263876 z"
           style="fill:#fe3dce"
           id="path889" />
        <path
           d="m 20.298816,19.962286 q 0,-0.122766 0.04375,-0.214488 0.04516,-0.09172 0.121354,-0.14111 0.07761,-0.04939 0.172154,-0.04939 0.08184,0 0.14111,0.03245 0.05927,0.03245 0.09172,0.08749 v -0.110065 h 0.276575 v 0.791627 h -0.276575 v -0.110066 q -0.03246,0.05503 -0.09313,0.08749 -0.05927,0.03245 -0.139699,0.03245 -0.09454,0 -0.172154,-0.04939 -0.0762,-0.04939 -0.121354,-0.14111 -0.04375,-0.09313 -0.04375,-0.215898 z m 0.570085,0 q 0,-0.0762 -0.04233,-0.119944 -0.04092,-0.04374 -0.101599,-0.04374 -0.06209,0 -0.103011,0.04374 -0.04092,0.04233 -0.04092,0.119944 0,0.0762 0.04092,0.121354 0.04092,0.04374 0.103011,0.04374 0.06068,0 0.101599,-0.04374 0.04233,-0.04374 0.04233,-0.121354 z"
           style="fill:#fe3dce"
           id="path891" />
        <path
           d="m 21.580093,19.706876 q 0.04657,-0.06773 0.112888,-0.107243 0.06632,-0.03951 0.142521,-0.03951 v 0.29492 h -0.07761 q -0.09031,0 -0.134055,0.03528 -0.04374,0.03528 -0.04374,0.122766 v 0.34572 h -0.276576 v -0.791627 h 0.276576 z"
           style="fill:#fe3dce"
           id="path893" />
        <path
           d="m 21.889122,19.962286 q 0,-0.122766 0.04374,-0.214488 0.04515,-0.09172 0.122766,-0.14111 0.07761,-0.04939 0.172154,-0.04939 0.0762,0 0.135466,0.03245 0.06068,0.03104 0.09454,0.08608 v -0.361241 h 0.277987 v 1.044214 h -0.277987 v -0.110066 q -0.03246,0.05503 -0.09172,0.08749 -0.05927,0.03245 -0.139699,0.03245 -0.09454,0 -0.172154,-0.04939 -0.0762,-0.04939 -0.121355,-0.14111 -0.04374,-0.09313 -0.04374,-0.215898 z m 0.570084,0 q 0,-0.0762 -0.04233,-0.119944 -0.04092,-0.04374 -0.101599,-0.04374 -0.06209,0 -0.10301,0.04374 -0.04092,0.04233 -0.04092,0.119944 0,0.0762 0.04092,0.121354 0.04092,0.04374 0.10301,0.04374 0.06068,0 0.101599,-0.04374 0.04233,-0.04374 0.04233,-0.121354 z"
           style="fill:#fe3dce"
           id="path895" />
        <path
           d="m 24.055158,19.363979 v 0.994826 h -0.276575 v -0.548918 l -0.187677,0.548918 h -0.23142 l -0.189088,-0.553152 v 0.553152 h -0.276575 v -0.994826 h 0.334431 l 0.249764,0.646284 0.244121,-0.646284 z"
           style="fill:#fe3dce"
           id="path897" />
        <path
           d="m 24.96955,19.953819 q 0,0.03246 -0.0042,0.06491 h -0.523518 q 0.0042,0.06491 0.03528,0.09736 0.03246,0.03104 0.08184,0.03104 0.06914,0 0.09878,-0.06209 h 0.29492 q -0.01834,0.08184 -0.07197,0.146755 -0.05221,0.0635 -0.132643,0.100188 -0.08043,0.03669 -0.177799,0.03669 -0.117121,0 -0.208843,-0.04939 -0.09031,-0.04939 -0.142521,-0.14111 -0.0508,-0.09172 -0.0508,-0.215898 0,-0.124177 0.0508,-0.214488 0.0508,-0.09172 0.14111,-0.14111 0.09172,-0.04939 0.210254,-0.04939 0.117121,0 0.207432,0.04798 0.09031,0.04798 0.14111,0.138288 0.0508,0.0889 0.0508,0.210254 z m -0.28222,-0.06914 q 0,-0.0508 -0.03387,-0.07902 -0.03387,-0.02963 -0.08467,-0.02963 -0.0508,0 -0.08326,0.02822 -0.03245,0.02681 -0.04233,0.08043 z"
           style="fill:#fe3dce"
           id="path899" />
        <path
           d="m 25.600311,19.560122 q 0.136877,0 0.217309,0.09172 0.08043,0.09031 0.08043,0.245531 v 0.46143 h -0.276576 v -0.424741 q 0,-0.06773 -0.03528,-0.105833 -0.03528,-0.03951 -0.09454,-0.03951 -0.06209,0 -0.09737,0.03951 -0.03528,0.0381 -0.03528,0.105833 v 0.424741 h -0.276576 v -0.791627 h 0.276576 v 0.112888 q 0.03669,-0.05362 0.09878,-0.08608 0.06209,-0.03387 0.142521,-0.03387 z"
           style="fill:#fe3dce"
           id="path901" />
        <path
           d="m 26.860422,19.567178 v 0.791627 h -0.277987 v -0.112888 q -0.03528,0.05362 -0.09737,0.08749 -0.06209,0.03246 -0.142521,0.03246 -0.138288,0 -0.21872,-0.09031 -0.07902,-0.09172 -0.07902,-0.248354 v -0.460018 h 0.275165 v 0.424741 q 0,0.06773 0.03528,0.107243 0.03669,0.0381 0.09596,0.0381 0.06068,0 0.09596,-0.0381 0.03528,-0.03951 0.03528,-0.107243 v -0.424741 z"
           style="fill:#fe3dce"
           id="path903" />
        <path
           d="m 27.834079,19.015437 -0.376764,1.61571 h -0.266698 l 0.376764,-1.61571 z"
           style="fill:#26afe6"
           id="path905" />
        <path
           d="m 27.869354,19.562944 h 0.34572 l 0.270931,0.309031 -0.270931,0.30762 h -0.34572 l 0.270932,-0.30762 z"
           style="fill:#26afe6"
           id="path907" />
      </g>
      <g
         aria-label="&lt;Badge /&gt;"
         id="text28"
         style="line-height:1.25">
        <path
           d="M 18.780476,6.9504285 18.509545,6.6428087 18.780476,6.3337778 h 0.347131 l -0.270932,0.3090309 0.270932,0.3076198 z"
           style="fill:#26afe6;fill-opacity:1"
           id="path910" />
        <path
           d="m 19.909354,6.61882 q 0.08749,0.019755 0.138287,0.087488 0.05221,0.066322 0.05221,0.1523988 0,0.126999 -0.08749,0.1989651 -0.08749,0.071966 -0.245531,0.071966 H 19.274359 V 6.1348127 h 0.476951 q 0.152399,0 0.238476,0.067733 0.08749,0.067733 0.08749,0.1904985 0,0.087488 -0.04657,0.1467544 -0.04516,0.057855 -0.121354,0.079022 z m -0.35842,-0.088899 h 0.139699 q 0.104422,0 0.104422,-0.086077 0,-0.088899 -0.104422,-0.088899 H 19.550934 Z M 19.7118,6.9066844 q 0.104421,0 0.104421,-0.087488 0,-0.045155 -0.02822,-0.069144 -0.02681,-0.023989 -0.07761,-0.023989 h -0.159455 v 0.1806208 z"
           style="fill:#fe3dce;fill-opacity:1"
           id="path912" />
        <path
           d="m 20.176051,6.7331191 q 0,-0.1227657 0.04374,-0.2144872 0.04515,-0.091722 0.121355,-0.14111 0.07761,-0.049389 0.172154,-0.049389 0.08184,0 0.14111,0.032455 0.05927,0.032455 0.09172,0.087488 V 6.3380111 h 0.276576 V 7.1296382 H 20.746135 V 7.0195724 q -0.03245,0.055033 -0.09313,0.087488 -0.05927,0.032455 -0.139699,0.032455 -0.09454,0 -0.172154,-0.049389 -0.0762,-0.049389 -0.121355,-0.14111 -0.04374,-0.093133 -0.04374,-0.2158983 z m 0.570084,0 q 0,-0.076199 -0.04233,-0.1199435 -0.04092,-0.043744 -0.101599,-0.043744 -0.06209,0 -0.10301,0.043744 -0.04092,0.042333 -0.04092,0.1199435 0,0.076199 0.04092,0.1213546 0.04092,0.043744 0.10301,0.043744 0.06068,0 0.101599,-0.043744 0.04233,-0.043744 0.04233,-0.1213546 z"
           style="fill:#fe3dce;fill-opacity:1"
           id="path914" />
        <path
           d="m 21.135597,6.7331191 q 0,-0.1227657 0.04374,-0.2144872 0.04515,-0.091722 0.122766,-0.14111 0.07761,-0.049389 0.172154,-0.049389 0.0762,0 0.135465,0.032455 0.06068,0.031044 0.09454,0.086077 V 6.0854242 h 0.277987 v 1.044214 H 21.70427 V 7.0195724 q -0.03246,0.055033 -0.09172,0.087488 -0.05927,0.032455 -0.139699,0.032455 -0.09454,0 -0.172155,-0.049389 -0.0762,-0.049389 -0.121354,-0.14111 -0.04374,-0.093133 -0.04374,-0.2158983 z m 0.570084,0 q 0,-0.076199 -0.04233,-0.1199435 -0.04092,-0.043744 -0.101599,-0.043744 -0.06209,0 -0.10301,0.043744 -0.04092,0.042333 -0.04092,0.1199435 0,0.076199 0.04092,0.1213546 0.04092,0.043744 0.10301,0.043744 0.06068,0 0.101599,-0.043744 0.04233,-0.043744 0.04233,-0.1213546 z"
           style="fill:#fe3dce;fill-opacity:1"
           id="path916" />
        <path
           d="m 22.432395,6.3281334 q 0.08043,0 0.139699,0.032455 0.06068,0.032455 0.09313,0.087488 V 6.3380111 h 0.276575 v 0.7831605 q 0,0.1114769 -0.04233,0.2003762 -0.04233,0.09031 -0.132643,0.1439322 -0.0889,0.053622 -0.225776,0.053622 -0.183443,0 -0.293509,-0.086077 -0.110066,-0.086077 -0.125588,-0.2342426 h 0.272343 q 0.0085,0.0381 0.04233,0.059266 0.03387,0.021167 0.08749,0.021167 0.14111,0 0.14111,-0.1580432 V 7.0195724 q -0.03246,0.055033 -0.09313,0.087488 -0.05927,0.032455 -0.139699,0.032455 -0.09454,0 -0.172154,-0.049389 -0.0762,-0.049389 -0.121355,-0.14111 -0.04374,-0.093133 -0.04374,-0.2158983 0,-0.1227657 0.04374,-0.2144872 0.04516,-0.091722 0.121355,-0.14111 0.07761,-0.049389 0.172154,-0.049389 z m 0.232832,0.4049857 q 0,-0.076199 -0.04233,-0.1199435 -0.04092,-0.043744 -0.101599,-0.043744 -0.06209,0 -0.103011,0.043744 -0.04092,0.042333 -0.04092,0.1199435 0,0.076199 0.04092,0.1213546 0.04092,0.043744 0.103011,0.043744 0.06068,0 0.101599,-0.043744 0.04233,-0.043744 0.04233,-0.1213546 z"
           style="fill:#fe3dce;fill-opacity:1"
           id="path918" />
        <path
           d="m 23.856193,6.7246525 q 0,0.032455 -0.0042,0.064911 h -0.523518 q 0.0042,0.064911 0.03528,0.097366 0.03245,0.031044 0.08184,0.031044 0.06914,0 0.09878,-0.062088 h 0.29492 q -0.01835,0.081844 -0.07197,0.1467544 -0.05221,0.063499 -0.132643,0.1001881 -0.08043,0.036689 -0.177799,0.036689 -0.117121,0 -0.208842,-0.049389 -0.09031,-0.049389 -0.142521,-0.14111 -0.0508,-0.091721 -0.0508,-0.2158983 0,-0.1241768 0.0508,-0.2144872 0.0508,-0.091722 0.14111,-0.14111 0.09172,-0.049389 0.210253,-0.049389 0.117122,0 0.207432,0.047977 0.09031,0.047977 0.14111,0.1382878 0.0508,0.088899 0.0508,0.2102539 z m -0.28222,-0.069144 q 0,-0.0508 -0.03387,-0.079022 -0.03387,-0.029633 -0.08467,-0.029633 -0.0508,0 -0.08325,0.028222 -0.03246,0.026811 -0.04233,0.080433 z"
           style="fill:#fe3dce;fill-opacity:1"
           id="path920" />
        <path
           d="M 24.784696,5.786271 24.407932,7.4019805 H 24.141234 L 24.517998,5.786271 Z"
           style="fill:#26afe6;fill-opacity:1"
           id="path922" />
        <path
           d="m 24.819971,6.3337778 h 0.34572 l 0.270931,0.3090309 -0.270931,0.3076198 h -0.34572 l 0.270931,-0.3076198 z"
           style="fill:#26afe6;fill-opacity:1"
           id="path924" />
      </g>
      <g
         aria-label="&lt;CardContent /&gt;"
         id="text38"
         style="line-height:1.25">
        <path
           d="m 18.780476,15.966018 -0.270931,-0.30762 0.270931,-0.309031 h 0.347131 l -0.270932,0.309031 0.270932,0.30762 z"
           style="fill:#26afe6"
           id="path927" />
        <path
           d="m 19.240492,15.645698 q 0,-0.146754 0.06068,-0.261053 0.06209,-0.115711 0.174976,-0.17921 0.112888,-0.06491 0.259642,-0.06491 0.186266,0 0.313265,0.100188 0.126999,0.09878 0.163687,0.26952 h -0.297742 q -0.02681,-0.05644 -0.07479,-0.08608 -0.04657,-0.02963 -0.108655,-0.02963 -0.09596,0 -0.15381,0.06914 -0.05644,0.06773 -0.05644,0.182032 0,0.11571 0.05644,0.184854 0.05785,0.06773 0.15381,0.06773 0.06209,0 0.108655,-0.02963 0.04798,-0.02963 0.07479,-0.08608 h 0.297742 q -0.03669,0.170743 -0.163687,0.270931 -0.126999,0.09878 -0.313265,0.09878 -0.146754,0 -0.259642,-0.0635 -0.112888,-0.06491 -0.174976,-0.179209 -0.06068,-0.11571 -0.06068,-0.263876 z"
           style="fill:#fe3dce"
           id="path929" />
        <path
           d="m 20.298816,15.748708 q 0,-0.122765 0.04375,-0.214487 0.04516,-0.09172 0.121354,-0.14111 0.07761,-0.04939 0.172154,-0.04939 0.08184,0 0.14111,0.03245 0.05927,0.03246 0.09172,0.08749 V 15.3536 h 0.276575 v 0.791627 h -0.276575 v -0.110065 q -0.03246,0.05503 -0.09313,0.08749 -0.05927,0.03245 -0.139699,0.03245 -0.09454,0 -0.172154,-0.04939 -0.0762,-0.04939 -0.121354,-0.14111 -0.04375,-0.09313 -0.04375,-0.215899 z m 0.570085,0 q 0,-0.0762 -0.04233,-0.119943 -0.04092,-0.04374 -0.101599,-0.04374 -0.06209,0 -0.103011,0.04374 -0.04092,0.04233 -0.04092,0.119943 0,0.0762 0.04092,0.121355 0.04092,0.04374 0.103011,0.04374 0.06068,0 0.101599,-0.04374 0.04233,-0.04374 0.04233,-0.121355 z"
           style="fill:#fe3dce"
           id="path931" />
        <path
           d="m 21.580093,15.493299 q 0.04657,-0.06773 0.112888,-0.107243 0.06632,-0.03951 0.142521,-0.03951 v 0.29492 h -0.07761 q -0.09031,0 -0.134055,0.03528 -0.04374,0.03528 -0.04374,0.122766 v 0.345719 H 21.303517 V 15.3536 h 0.276576 z"
           style="fill:#fe3dce"
           id="path933" />
        <path
           d="m 21.889122,15.748708 q 0,-0.122765 0.04374,-0.214487 0.04515,-0.09172 0.122766,-0.14111 0.07761,-0.04939 0.172154,-0.04939 0.0762,0 0.135466,0.03245 0.06068,0.03104 0.09454,0.08608 v -0.361242 h 0.277987 v 1.044214 h -0.277987 v -0.110065 q -0.03246,0.05503 -0.09172,0.08749 -0.05927,0.03245 -0.139699,0.03245 -0.09454,0 -0.172154,-0.04939 -0.0762,-0.04939 -0.121355,-0.14111 -0.04374,-0.09313 -0.04374,-0.215899 z m 0.570084,0 q 0,-0.0762 -0.04233,-0.119943 -0.04092,-0.04374 -0.101599,-0.04374 -0.06209,0 -0.10301,0.04374 -0.04092,0.04233 -0.04092,0.119943 0,0.0762 0.04092,0.121355 0.04092,0.04374 0.10301,0.04374 0.06068,0 0.101599,-0.04374 0.04233,-0.04374 0.04233,-0.121355 z"
           style="fill:#fe3dce"
           id="path935" />
        <path
           d="m 22.859956,15.645698 q 0,-0.146754 0.06068,-0.261053 0.06209,-0.115711 0.174976,-0.17921 0.112888,-0.06491 0.259643,-0.06491 0.186265,0 0.313264,0.100188 0.126999,0.09878 0.163687,0.26952 h -0.297742 q -0.02681,-0.05644 -0.07479,-0.08608 -0.04657,-0.02963 -0.108655,-0.02963 -0.09596,0 -0.15381,0.06914 -0.05644,0.06773 -0.05644,0.182032 0,0.11571 0.05644,0.184854 0.05785,0.06773 0.15381,0.06773 0.06209,0 0.108655,-0.02963 0.04798,-0.02963 0.07479,-0.08608 h 0.297742 q -0.03669,0.170743 -0.163687,0.270931 -0.126999,0.09878 -0.313264,0.09878 -0.146755,0 -0.259643,-0.0635 -0.112888,-0.06491 -0.174976,-0.179209 -0.06068,-0.11571 -0.06068,-0.263876 z"
           style="fill:#fe3dce"
           id="path937" />
        <path
           d="m 24.331733,16.155105 q -0.118532,0 -0.213076,-0.04939 -0.09313,-0.04939 -0.146755,-0.14111 -0.05362,-0.09172 -0.05362,-0.215899 0,-0.122765 0.05362,-0.214487 0.05503,-0.09172 0.148166,-0.14111 0.09454,-0.04939 0.213076,-0.04939 0.118532,0 0.211665,0.04939 0.09454,0.04939 0.148166,0.14111 0.05503,0.09172 0.05503,0.214487 0,0.122766 -0.05503,0.215899 -0.05362,0.09172 -0.148166,0.14111 -0.09454,0.04939 -0.213076,0.04939 z m 0,-0.239887 q 0.05785,0 0.09596,-0.04233 0.03951,-0.04374 0.03951,-0.124177 0,-0.08043 -0.03951,-0.122765 -0.0381,-0.04233 -0.09454,-0.04233 -0.05644,0 -0.09454,0.04233 -0.0381,0.04233 -0.0381,0.122765 0,0.08184 0.03669,0.124177 0.03669,0.04233 0.09454,0.04233 z"
           style="fill:#fe3dce"
           id="path939" />
        <path
           d="m 25.378769,15.346545 q 0.136876,0 0.217309,0.09172 0.08043,0.09031 0.08043,0.245532 v 0.461429 h -0.276576 v -0.424741 q 0,-0.06773 -0.03528,-0.105832 -0.03528,-0.03951 -0.09454,-0.03951 -0.06209,0 -0.09737,0.03951 -0.03528,0.0381 -0.03528,0.105832 v 0.424741 H 24.860895 V 15.3536 h 0.276575 v 0.112888 q 0.03669,-0.05362 0.09878,-0.08608 0.06209,-0.03387 0.142522,-0.03387 z"
           style="fill:#fe3dce"
           id="path941" />
        <path
           d="m 26.295982,15.909574 v 0.235653 h -0.119943 q -0.303387,0 -0.303387,-0.300564 V 15.58361 h -0.09737 V 15.3536 h 0.09737 v -0.191909 h 0.277987 V 15.3536 h 0.143932 v 0.23001 h -0.143932 v 0.265286 q 0,0.03246 0.01411,0.04657 0.01552,0.01411 0.0508,0.01411 z"
           style="fill:#fe3dce"
           id="path943" />
        <path
           d="m 27.17933,15.740242 q 0,0.03246 -0.0042,0.06491 h -0.523518 q 0.0042,0.06491 0.03528,0.09737 0.03246,0.03104 0.08184,0.03104 0.06914,0 0.09878,-0.06209 h 0.29492 q -0.01834,0.08184 -0.07197,0.146754 -0.05221,0.0635 -0.132644,0.100189 -0.08043,0.03669 -0.177798,0.03669 -0.117122,0 -0.208843,-0.04939 -0.09031,-0.04939 -0.142521,-0.14111 -0.0508,-0.09172 -0.0508,-0.215899 0,-0.124176 0.0508,-0.214487 0.0508,-0.09172 0.14111,-0.14111 0.09172,-0.04939 0.210254,-0.04939 0.117121,0 0.207431,0.04798 0.09031,0.04798 0.14111,0.138288 0.0508,0.0889 0.0508,0.210254 z m -0.28222,-0.06914 q 0,-0.0508 -0.03387,-0.07902 -0.03387,-0.02963 -0.08467,-0.02963 -0.0508,0 -0.08326,0.02822 -0.03246,0.02681 -0.04233,0.08043 z"
           style="fill:#fe3dce"
           id="path945" />
        <path
           d="m 27.810091,15.346545 q 0.136877,0 0.21731,0.09172 0.08043,0.09031 0.08043,0.245532 v 0.461429 h -0.276575 v -0.424741 q 0,-0.06773 -0.03528,-0.105832 -0.03528,-0.03951 -0.09454,-0.03951 -0.06209,0 -0.09736,0.03951 -0.03528,0.0381 -0.03528,0.105832 v 0.424741 H 27.292217 V 15.3536 h 0.276576 v 0.112888 q 0.03669,-0.05362 0.09878,-0.08608 0.06209,-0.03387 0.142521,-0.03387 z"
           style="fill:#fe3dce"
           id="path947" />
        <path
           d="m 28.727304,15.909574 v 0.235653 h -0.119943 q -0.303387,0 -0.303387,-0.300564 V 15.58361 h -0.09737 V 15.3536 h 0.09737 v -0.191909 h 0.277987 V 15.3536 h 0.143932 v 0.23001 h -0.143932 v 0.265286 q 0,0.03246 0.01411,0.04657 0.01552,0.01411 0.0508,0.01411 z"
           style="fill:#fe3dce"
           id="path949" />
        <path
           d="m 29.669918,14.80186 -0.376764,1.61571 h -0.266698 l 0.376764,-1.61571 z"
           style="fill:#26afe6"
           id="path951" />
        <path
           d="m 29.705194,15.349367 h 0.345719 l 0.270931,0.309031 -0.270931,0.30762 h -0.345719 l 0.270931,-0.30762 z"
           style="fill:#26afe6"
           id="path953" />
      </g>
      <text
         xml:space="preserve"
         id="text881"
         style="line-height:1.25;font-family:'ITC Avant Garde Gothic Std';font-size:10.58361271px;-inkscape-font-specification:'ITC Avant Garde Gothic Std Bold';font-weight:bold;white-space:pre;shape-inside:url(#rect883);" />
    </g>
    <path
       x="5.2916665"
       y="9.260417"
       width="10.583333"
       height="7.9375"
       d="m6.2917 9.2604h8.5833a1 1 45 0 1 1 1v5.9375a1 1 135 0 1-1 1h-8.5833a1 1 45 0 1-1-1v-5.9375a1 1 135 0 1 1-1z"
       fill="#fffffe"
       fill-opacity=".40994"
       id="path42" />
  </g>
</svg>
