<?xml version="1.0" encoding="UTF-8" standalone="no"?>
<svg
   xmlns:dc="http://purl.org/dc/elements/1.1/"
   xmlns:cc="http://creativecommons.org/ns#"
   xmlns:rdf="http://www.w3.org/1999/02/22-rdf-syntax-ns#"
   xmlns:svg="http://www.w3.org/2000/svg"
   xmlns="http://www.w3.org/2000/svg"
   xmlns:sodipodi="http://sodipodi.sourceforge.net/DTD/sodipodi-0.dtd"
   xmlns:inkscape="http://www.inkscape.org/namespaces/inkscape"
   width="101.3"
   height="70"
   version="1.1"
   viewBox="0 0 26.803 18.521"
   id="svg46"
   sodipodi:docname="card.svg"
   inkscape:version="1.0.2 (e86c870879, 2021-01-15)">
  <defs
     id="defs50" />
  <sodipodi:namedview
     pagecolor="#ffffff"
     bordercolor="#666666"
     borderopacity="1"
     objecttolerance="10"
     gridtolerance="10"
     guidetolerance="10"
     inkscape:pageopacity="0"
     inkscape:pageshadow="2"
     inkscape:window-width="1920"
     inkscape:window-height="1009"
     id="namedview48"
     showgrid="false"
     inkscape:zoom="11.530108"
     inkscape:cx="47.354282"
     inkscape:cy="41.938356"
     inkscape:window-x="-8"
     inkscape:window-y="1072"
     inkscape:window-maximized="1"
     inkscape:current-layer="g40" />
  <metadata
     id="metadata2">
    <rdf:RDF>
      <cc:Work
         rdf:about="">
        <dc:format>image/svg+xml</dc:format>
        <dc:type
           rdf:resource="http://purl.org/dc/dcmitype/StillImage" />
        <dc:title></dc:title>
      </cc:Work>
    </rdf:RDF>
  </metadata>
  <g
     transform="translate(-3.9688 -3.9688)"
     id="g44">
    <path
       x="3.96875"
       y="3.96875"
       width="13.229167"
       height="18.520834"
       d="m5.9688 3.9688h9.2292a2 2 45 0 1 2 2v14.521a2 2 135 0 1-2 2h-9.2292a2 2 45 0 1-2-2v-14.521a2 2 135 0 1 2-2z"
       fill="#2b313a"
       id="path4" />
    <circle
       cx="6.6146"
       cy="6.6146"
       r="1.3229"
       fill="#fffffe"
       id="circle6" />
    <path
       x="5.2916665"
       y="18.520834"
       width="10.583333"
       height="2.6458333"
       d="m6.2917 18.521h8.5833a1 1 45 0 1 1 1v0.64583a1 1 135 0 1-1 1h-8.5833a1 1 45 0 1-1-1v-0.64583a1 1 135 0 1 1-1z"
       fill="#fffffe"
       fill-opacity=".40994"
       id="path8" />
    <g
       font-family="'Poppins'"
       font-size="1.4111px"
       font-weight="bold"
       stroke-width=".26458"
       id="g40">
      <text
         x="18.455923"
         y="20.358805"
         style="line-height:1.25"
         xml:space="preserve"
         id="text18"><tspan
           x="18.455923"
           y="20.358805"
           font-size="1.4111px"
           stroke-width=".26458"
           id="tspan16"><tspan
   fill="#26afe6"
   id="tspan10">&lt;</tspan><tspan
   fill="#fe3dce"
   id="tspan12">CardMenu</tspan> <tspan
   fill="#26afe6"
   id="tspan14">/&gt;</tspan></tspan></text>
      <text
         x="18.455923"
         y="7.1296382"
         style="line-height:1.25"
         xml:space="preserve"
         id="text28"><tspan
           x="18.455923"
           y="7.1296382"
           font-size="1.4111px"
           stroke-width="0.26458"
           id="tspan26"><tspan
   style="fill:#26afe6;fill-opacity:1"
   id="tspan875">&lt;</tspan><tspan
   style="fill:#fe3dce;fill-opacity:1"
   id="tspan879">Badge</tspan> <tspan
   style="fill:#26afe6;fill-opacity:1"
   id="tspan877">/&gt;</tspan></tspan></text>
      <text
         x="18.455923"
         y="16.145227"
         style="line-height:1.25"
         xml:space="preserve"
         id="text38"><tspan
           x="18.455923"
           y="16.145227"
           font-size="1.4111px"
           stroke-width="0.26458"
           id="tspan36"><tspan
   fill="#26afe6"
   id="tspan30">&lt;</tspan><tspan
   fill="#fe3dce"
   id="tspan32">CardContent</tspan> <tspan
   fill="#26afe6"
   id="tspan34">/&gt;</tspan></tspan></text>
    </g>
    <path
       x="5.2916665"
       y="9.260417"
       width="10.583333"
       height="7.9375"
       d="m6.2917 9.2604h8.5833a1 1 45 0 1 1 1v5.9375a1 1 135 0 1-1 1h-8.5833a1 1 45 0 1-1-1v-5.9375a1 1 135 0 1 1-1z"
       fill="#fffffe"
       fill-opacity=".40994"
       id="path42" />
  </g>
</svg>
