<?xml version="1.0" encoding="UTF-8"?>
<svg width="1920" height="1122.5" version="1.1" viewBox="0 0 508 297" xmlns="http://www.w3.org/2000/svg" xmlns:cc="http://creativecommons.org/ns#" xmlns:dc="http://purl.org/dc/elements/1.1/" xmlns:rdf="http://www.w3.org/1999/02/22-rdf-syntax-ns#">
 <metadata>
  <rdf:RDF>
   <cc:Work rdf:about="">
    <dc:format>image/svg+xml</dc:format>
    <dc:type rdf:resource="http://purl.org/dc/dcmitype/StillImage"/>
    <dc:title/>
   </cc:Work>
  </rdf:RDF>
 </metadata>
 <path d="m28.876 34.048c8.7101 18.036 2.6543 51.126 44.804 35.072 9.431-3.6402 15.237-7.2804 20.183-10.921 9.6468-8.5942 11.758-24.398 20.856-21.313 16.358 5.4239 25.828 19.325 17.342 27.492-25.658 27.675-75.926 63.09-70.148 80.879 8.4324 27.454 37.87 46.963 48.571 38.866 54.124-34.237 119.73-130.29 140.39-130.53 12.841-2.7382 59.835 12.603 54.502 25.754-25.794 80.465-180.71 104.79-160.48 145.56 11.71 23.954 40.902 36.344 53.274 30.482 86.74-41.796 142.86-166.75 188.35-146.3 22.835 10.902 55.543 34.754 40.771 58.404-25.773 19.369-61.051 38.925-40.771 60.677 28.562 29.275 75.861 7.9263 89.358 31.694" fill="none" stroke="#000" stroke-width="9.0476"/>
</svg>
